<?xml version="1.0" encoding="utf-8"?>
<!-- Generator: Adobe Illustrator 19.2.1, SVG Export Plug-In . SVG Version: 6.00 Build 0)  -->
<svg version="1.1" id="Layer_1" xmlns="http://www.w3.org/2000/svg" xmlns:xlink="http://www.w3.org/1999/xlink" x="0px" y="0px"
	 viewBox="0 0 22 22" style="enable-background:new 0 0 22 22;" xml:space="preserve">
<style type="text/css">
	.st0{fill:#3867C8;}
	.st1{fill:#66CC66;stroke:#FFFFFF;stroke-width:0.4;stroke-miterlimit:10;}
	.st2{fill:none;stroke:#FFFFFF;stroke-width:0.4;stroke-miterlimit:10;}
</style>
<rect class="st0" width="22" height="22"/>
<polygon class="st1" points="12.3,7 10.8,7 9.5,6.9 9.1,7.5 9,8.8 8.5,9 7.8,9.8 7.3,10.3 8.2,10.8 7.6,11.2 6.8,11.4 6.2,12 
	7.4,12.4 8.1,12.6 7.8,13.2 6.9,12.9 6.3,13.3 6.6,14.5 7.2,15.3 8,14.8 8.5,13.9 9.3,13.8 10.3,13.6 10.3,14.3 11,14.5 11,15.7 
	12.6,15.7 12.5,12.5 13.3,12.6 14,11.6 13,10.6 12.1,10.3 12.2,8.5 12.5,7.5 12.3,7 "/>
<polyline class="st2" points="14.8,3.6 13.2,3.5 12.4,3.3 11.9,4 12.2,4.7 12.1,5.7 12.2,6.9 15.7,5.2 18.7,7.8 19.9,9 22.3,10 "/>
<polyline class="st2" points="9.5,6.9 9.3,5.3 10.6,4.5 10.9,3.7 9.9,2.7 9.1,1.2 6.4,1 5.7,-0.2 "/>
<polyline class="st2" points="12.7,15.7 15.7,15.7 15.8,17.4 15.3,19.3 14.7,19.6 14.8,20.7 14.8,22 "/>
<polyline class="st2" points="22.3,12 20.3,16 17.7,15.4 15.8,15.7 15.7,15.6 17.5,13.4 17.7,12.3 17.5,11.1 13.6,11 "/>
<polyline class="st2" points="7.4,10 5.6,10.5 5.4,11.2 3.5,11.3 2.7,11.7 1.8,12.9 -0.3,13.5 "/>
<polyline class="st2" points="15.6,5.1 14.9,3.8 14.9,2.6 15.9,1.7 17.3,1.9 17.7,0.7 17.7,0 "/>
<polyline class="st2" points="10.8,15.7 9.6,15.6 9.1,15.8 9.1,16.5 9.1,18.3 9.2,19.3 8.4,19.7 7,20 5.2,20.6 4.6,21.2 4.3,22.2 
	"/>
</svg>
