<?xml version="1.0" encoding="utf-8"?>
<!-- Generator: Adobe Illustrator 19.2.1, SVG Export Plug-In . SVG Version: 6.00 Build 0)  -->
<svg version="1.1" id="Layer_1" xmlns="http://www.w3.org/2000/svg" xmlns:xlink="http://www.w3.org/1999/xlink" x="0px" y="0px"
	 viewBox="0 0 22 22" style="enable-background:new 0 0 22 22;" xml:space="preserve">
<style type="text/css">
	.st0{fill:#FFFFFF;}
	.st1{fill:#FFFFFF;stroke:#4267B0;stroke-miterlimit:10;}
	.st2{fill:none;stroke:#4267B0;stroke-miterlimit:10;}
	.st3{fill:#26C045;stroke:#333333;stroke-width:0.5;stroke-miterlimit:10;}
</style>
<path class="st0" d="M37.5,16.8"/>
<polygon class="st1" points="2.5,0.5 15.5,0.5 19.5,4.8 19.5,21.5 2.5,21.5 "/>
<polyline class="st2" points="15,0.5 15,5.5 20,5.5 "/>
<g>
	<path class="st3" d="M2,14.9c-0.2-0.2-0.3-0.3-0.4-0.4s-0.1-0.2-0.1-0.3s0.1-0.3,0.3-0.4s0.3-0.3,0.6-0.4s0.5-0.2,0.8-0.3
		c0.3-0.1,0.5-0.1,0.8-0.1s0.5,0,0.7,0.1c0.2,0.1,0.3,0.2,0.5,0.3c0.7,0.7,1.3,1.4,1.8,2.1s1.1,1.4,1.6,2.2c0.5-1.3,1-2.5,1.6-3.7
		c0.5-1.2,1.1-2.3,1.7-3.5s1.3-2.2,2-3.4C14.5,6.1,15.3,5,16,3.8c0.3-0.4,0.8-0.7,1.3-1c0.6-0.2,1.4-0.3,2.3-0.3
		c0.3,0,0.5,0,0.7,0.1c0.1,0.1,0.2,0.2,0.2,0.3c0,0.1,0,0.2-0.1,0.3c-0.2,0.3-0.3,0.4-0.3,0.5c-2,2.6-3.8,5.4-5.4,8.2
		s-3,5.9-4.2,9.1c-0.1,0.3-0.3,0.4-0.6,0.5c-0.2,0-0.7,0.1-1.2,0.1c-0.3,0-0.5,0-0.7,0c-0.2,0-0.3-0.1-0.5-0.1
		c-0.2-0.1-0.3-0.1-0.3-0.2C7.2,21.1,7.1,21,7,20.9c-0.3-0.6-0.8-1.1-1.1-1.6s-0.7-1-1.1-1.5S4,16.9,3.6,16.4
		C3.1,16.1,2.5,15.5,2,14.9z"/>
</g>
</svg>
